<svg width="128" height="128" viewBox="0 0 128 128" fill="none" xmlns="http://www.w3.org/2000/svg">
<path fill-rule="evenodd" clip-rule="evenodd" d="M114.209 30.7057L117.207 23.3374C117.207 23.3374 113.391 19.2438 108.758 14.6045C104.124 9.96516 94.3119 12.6942 94.3119 12.6942L83.1368 0.00012207H63.5124H43.888L32.713 12.6942C32.713 12.6942 22.9008 9.96516 18.2672 14.6045C13.6337 19.2438 9.81782 23.3374 9.81782 23.3374L12.816 30.7057L9.00014 41.6218C9.00014 41.6218 20.2229 84.1824 21.538 89.3798C24.1273 99.6136 25.8989 103.571 33.2581 108.756C40.6173 113.941 53.9728 122.947 56.1533 124.311C58.3337 125.676 61.0594 128 63.5124 128C65.9655 128 68.6911 125.676 70.8716 124.311C73.0521 122.947 86.4076 113.941 93.7667 108.756C101.126 103.571 102.898 99.6136 105.487 89.3798C106.802 84.1824 118.025 41.6218 118.025 41.6218L114.209 30.7057Z" fill="url(#paint0_linear_15_663)"/>
<path fill-rule="evenodd" clip-rule="evenodd" d="M91.1773 20.7448C91.1773 20.7448 105.551 38.1423 105.551 41.8606C105.551 45.5789 103.743 46.5602 101.925 48.4932C100.107 50.4262 92.167 58.8682 91.1473 59.9521C90.1277 61.0364 88.005 62.6801 89.2536 65.6386C90.5022 68.5971 92.3442 72.3618 90.2959 76.1803C88.2473 79.9987 84.7381 82.5474 82.4894 82.126C80.2408 81.7044 74.9599 78.9412 73.0179 77.6791C71.0759 76.4169 64.9209 71.3343 64.9209 69.3896C64.9209 67.4452 71.2833 63.9537 72.4586 63.1604C73.6345 62.3673 78.9957 59.2969 79.1056 58.0917C79.2152 56.8863 79.1735 56.5329 77.5912 53.555C76.009 50.5768 73.1597 46.6028 73.6339 43.9587C74.1082 41.3148 78.7036 39.9399 81.983 38.6998C85.2619 37.46 91.5758 35.1183 92.3643 34.7542C93.1534 34.3899 92.9495 34.043 90.56 33.8162C88.171 33.5895 81.3907 32.6883 78.334 33.5414C75.2772 34.3945 70.0549 35.6925 69.6319 36.3807C69.2089 37.069 68.8357 37.0922 69.2702 39.4664C69.7044 41.8407 71.941 53.2333 72.158 55.2568C72.3752 57.2804 72.7999 58.6182 70.6207 59.117C68.4413 59.6159 64.7729 60.4821 63.5123 60.4821C62.2518 60.4821 58.5831 59.6159 56.4039 59.117C54.2245 58.6182 54.6492 57.2804 54.8664 55.2568C55.0837 53.2333 57.32 41.8407 57.7545 39.4664C58.1887 37.0922 57.8155 37.069 57.3928 36.3807C56.9698 35.6925 51.7472 34.3945 48.6905 33.5414C45.6337 32.6883 38.8537 33.5895 36.4644 33.8162C34.0752 34.043 33.8713 34.3899 34.6601 34.7542C35.4489 35.1183 41.7628 37.46 45.0417 38.6998C48.3209 39.9399 52.9165 41.3148 53.3908 43.9587C53.865 46.6028 51.0154 50.5768 49.4335 53.555C47.8512 56.5329 47.8093 56.8863 47.9191 58.0917C48.0287 59.2969 53.3902 62.3673 54.5658 63.1604C55.7413 63.9537 62.1035 67.4452 62.1035 69.3896C62.1035 71.3343 55.9488 76.4169 54.0068 77.6791C52.0648 78.9412 46.7839 81.7044 44.5353 82.126C42.2866 82.5474 38.7774 79.9987 36.7288 76.1803C34.6805 72.3618 36.5225 68.5971 37.7708 65.6386C39.0194 62.6801 36.897 61.0364 35.8771 59.9521C34.8577 58.8682 26.9174 50.4262 25.0995 48.4932C23.2815 46.5602 21.4736 45.5789 21.4736 41.8606C21.4736 38.1423 35.8474 20.7448 35.8474 20.7448C35.8474 20.7448 47.9763 23.0644 49.6117 23.0644C51.2471 23.0644 54.7904 21.6999 58.0611 20.6083C61.3319 19.5167 63.5123 19.5088 63.5123 19.5088C63.5123 19.5088 65.6928 19.5167 68.9636 20.6083C72.2343 21.6999 75.7776 23.0644 77.413 23.0644C79.0484 23.0644 91.1773 20.7448 91.1773 20.7448ZM80.4018 87.2938C81.2915 87.8516 80.7488 88.9031 79.9385 89.4767C79.1279 90.0504 68.2361 98.4951 67.1791 99.4284C66.1218 100.362 64.5685 101.904 63.5123 101.904C62.4561 101.904 60.9025 100.362 59.8455 99.4284C58.7883 98.4951 47.8967 90.0504 47.0861 89.4767C46.2755 88.9031 45.7331 87.8516 46.6228 87.2938C47.5127 86.7362 50.2963 85.3289 54.1375 83.3386C57.9782 81.3486 62.7652 79.6566 63.5123 79.6566C64.2594 79.6566 69.0461 81.3486 72.8873 83.3386C76.7282 85.3289 79.5119 86.7362 80.4018 87.2938Z" fill="white"/>
<mask id="mask0_15_663" style="mask-type:alpha" maskUnits="userSpaceOnUse" x="18" y="0" width="91" height="24">
<path d="M94.3118 12.6941L83.1368 6.10352e-05H63.5124H43.888L32.7129 12.6941C32.7129 12.6941 22.9007 9.9651 18.2672 14.6044C18.2672 14.6044 31.3501 13.422 35.8474 20.7447C35.8474 20.7447 47.9764 23.0644 49.6117 23.0644C51.2471 23.0644 54.7904 21.6999 58.0611 20.6083C61.3319 19.5167 63.5124 19.5088 63.5124 19.5088C63.5124 19.5088 65.6929 19.5167 68.9636 20.6083C72.2343 21.6999 75.7776 23.0644 77.413 23.0644C79.0484 23.0644 91.1774 20.7447 91.1774 20.7447C95.6746 13.422 108.758 14.6044 108.758 14.6044C104.124 9.9651 94.3118 12.6941 94.3118 12.6941Z" fill="white"/>
</mask>
<g mask="url(#mask0_15_663)">
<path d="M94.3118 12.6941L83.1368 6.10352e-05H63.5124H43.888L32.7129 12.6941C32.7129 12.6941 22.9007 9.9651 18.2672 14.6044C18.2672 14.6044 31.3501 13.422 35.8474 20.7447C35.8474 20.7447 47.9764 23.0644 49.6117 23.0644C51.2471 23.0644 54.7904 21.6999 58.0611 20.6083C61.3319 19.5167 63.5124 19.5088 63.5124 19.5088C63.5124 19.5088 65.6929 19.5167 68.9636 20.6083C72.2343 21.6999 75.7776 23.0644 77.413 23.0644C79.0484 23.0644 91.1774 20.7447 91.1774 20.7447C95.6746 13.422 108.758 14.6044 108.758 14.6044C104.124 9.9651 94.3118 12.6941 94.3118 12.6941Z" fill="url(#paint1_linear_15_663)"/>
</g>
<defs>
<linearGradient id="paint0_linear_15_663" x1="9.00014" y1="64.9032" x2="118.025" y2="64.9032" gradientUnits="userSpaceOnUse">
<stop stop-color="#FF5500"/>
<stop offset="0.409877" stop-color="#FF5500"/>
<stop offset="0.581981" stop-color="#FF2000"/>
<stop offset="1" stop-color="#FF2000"/>
</linearGradient>
<linearGradient id="paint1_linear_15_663" x1="20.2113" y1="11.695" x2="108.758" y2="11.695" gradientUnits="userSpaceOnUse">
<stop stop-color="#FF452A"/>
<stop offset="1" stop-color="#FF2000"/>
</linearGradient>
</defs>
</svg>
