<svg width="128" height="128" viewBox="0 0 128 128" fill="none" xmlns="http://www.w3.org/2000/svg">
<g clip-path="url(#clip0_15_661)">
<rect x="3.05176e-05" width="128" height="128" fill="black"/>
<path fill-rule="evenodd" clip-rule="evenodd" d="M99.9748 40.5899L102.083 35.4091C102.083 35.4091 99.3999 32.5308 96.142 29.2688C92.884 26.0067 85.9848 27.9256 85.9848 27.9256L78.1274 19.0001H64.3289H50.5305L42.6731 27.9256C42.6731 27.9256 35.7739 26.0067 32.5159 29.2688C29.258 32.5308 26.5749 35.4091 26.5749 35.4091L28.683 40.5899L26 48.2653C26 48.2653 33.891 78.1907 34.8157 81.8451C36.6363 89.0408 37.882 91.8231 43.0564 95.4689C48.2308 99.1147 57.6214 105.447 59.1545 106.406C60.6877 107.366 62.6041 109 64.3289 109C66.0537 109 67.9702 107.366 69.5033 106.406C71.0365 105.447 80.4271 99.1147 85.6015 95.4689C90.7759 91.8231 92.0216 89.0408 93.8422 81.8451C94.7667 78.1907 102.658 48.2653 102.658 48.2653L99.9748 40.5899Z" fill="url(#paint0_linear_15_661)"/>
<path fill-rule="evenodd" clip-rule="evenodd" d="M83.7808 33.5861C83.7808 33.5861 93.8874 45.8188 93.8874 48.4332C93.8874 51.0476 92.616 51.7376 91.3377 53.0967C90.0595 54.4559 84.4767 60.3916 83.7597 61.1538C83.0428 61.9161 81.5502 63.0719 82.4282 65.1521C83.3061 67.2323 84.6012 69.8793 83.161 72.5642C81.7206 75.249 79.2532 77.041 77.6721 76.7448C76.091 76.4483 72.3779 74.5055 71.0125 73.618C69.647 72.7306 65.3193 69.1569 65.3193 67.7895C65.3193 66.4224 69.7928 63.9674 70.6192 63.4096C71.446 62.852 75.2156 60.6931 75.2929 59.8457C75.3699 58.9981 75.3406 58.7497 74.2281 56.6558C73.1156 54.5618 71.1121 51.7676 71.4456 49.9084C71.779 48.0494 75.0102 47.0827 77.316 46.2108C79.6215 45.339 84.061 43.6925 84.6154 43.4365C85.1702 43.1803 85.0269 42.9365 83.3467 42.777C81.667 42.6175 76.8996 41.9839 74.7503 42.5838C72.601 43.1836 68.9291 44.0962 68.6317 44.5801C68.3342 45.0641 68.0719 45.0804 68.3773 46.7498C68.6826 48.4192 70.2553 56.4296 70.4078 57.8524C70.5606 59.2752 70.8591 60.2158 69.327 60.5666C67.7946 60.9174 65.2152 61.5264 64.3289 61.5264C63.4425 61.5264 60.863 60.9174 59.3308 60.5666C57.7984 60.2158 58.097 59.2752 58.2497 57.8524C58.4024 56.4296 59.9749 48.4192 60.2804 46.7498C60.5857 45.0804 60.3233 45.0641 60.0261 44.5801C59.7286 44.0962 56.0565 43.1836 53.9072 42.5838C51.7579 41.9839 46.9908 42.6175 45.3108 42.777C43.6309 42.9365 43.4875 43.1803 44.0421 43.4365C44.5967 43.6925 49.0362 45.339 51.3417 46.2108C53.6474 47.0827 56.8787 48.0494 57.2121 49.9084C57.5456 51.7676 55.542 54.5618 54.4296 56.6558C53.3171 58.7497 53.2876 58.9981 53.3649 59.8457C53.4419 60.6931 57.2118 62.852 58.0383 63.4096C58.8649 63.9674 63.3382 66.4224 63.3382 67.7895C63.3382 69.1569 59.0107 72.7306 57.6453 73.618C56.2798 74.5055 52.5667 76.4483 50.9856 76.7448C49.4045 77.041 46.9371 75.249 45.4967 72.5642C44.0565 69.8793 45.3516 67.2323 46.2294 65.1521C47.1073 63.0719 45.615 61.9161 44.8978 61.1538C44.1811 60.3916 38.5981 54.4559 37.3198 53.0967C36.0415 51.7376 34.7704 51.0476 34.7704 48.4332C34.7704 45.8188 44.8769 33.5861 44.8769 33.5861C44.8769 33.5861 53.4051 35.2171 54.555 35.2171C55.7048 35.2171 58.1962 34.2577 60.496 33.4902C62.7957 32.7226 64.3289 32.7171 64.3289 32.7171C64.3289 32.7171 65.862 32.7226 68.1618 33.4902C70.4615 34.2577 72.9529 35.2171 74.1027 35.2171C75.2526 35.2171 83.7808 33.5861 83.7808 33.5861ZM76.2043 80.3784C76.8298 80.7706 76.4482 81.5099 75.8785 81.9133C75.3085 82.3166 67.6502 88.2543 66.907 88.9105C66.1636 89.567 65.0714 90.6509 64.3288 90.6509C63.5862 90.6509 62.4938 89.567 61.7506 88.9105C61.0072 88.2543 53.3491 82.3166 52.7792 81.9133C52.2092 81.5099 51.8278 80.7706 52.4534 80.3784C53.0791 79.9864 55.0364 78.9968 57.7372 77.5974C60.4377 76.1982 63.8035 75.0085 64.3288 75.0085C64.8541 75.0085 68.2198 76.1982 70.9206 77.5974C73.6213 78.9968 75.5786 79.9864 76.2043 80.3784Z" fill="white"/>
<mask id="mask0_15_661" style="mask-type:alpha" maskUnits="userSpaceOnUse" x="32" y="19" width="65" height="17">
<path d="M85.9848 27.9255L78.1273 19H64.3289H50.5305L42.6731 27.9255C42.6731 27.9255 35.7739 26.0067 32.5159 29.2687C32.5159 29.2687 41.7149 28.4373 44.877 33.5861C44.877 33.5861 53.4052 35.2171 54.5551 35.2171C55.7049 35.2171 58.1963 34.2577 60.496 33.4902C62.7958 32.7226 64.3289 32.7171 64.3289 32.7171C64.3289 32.7171 65.8621 32.7226 68.1618 33.4902C70.4616 34.2577 72.9529 35.2171 74.1028 35.2171C75.2527 35.2171 83.7809 33.5861 83.7809 33.5861C86.943 28.4373 96.1419 29.2687 96.1419 29.2687C92.884 26.0067 85.9848 27.9255 85.9848 27.9255Z" fill="white"/>
</mask>
<g mask="url(#mask0_15_661)">
<path d="M85.9848 27.9255L78.1273 19H64.3289H50.5305L42.6731 27.9255C42.6731 27.9255 35.7739 26.0067 32.5159 29.2687C32.5159 29.2687 41.7149 28.4373 44.877 33.5861C44.877 33.5861 53.4052 35.2171 54.5551 35.2171C55.7049 35.2171 58.1963 34.2577 60.496 33.4902C62.7958 32.7226 64.3289 32.7171 64.3289 32.7171C64.3289 32.7171 65.8621 32.7226 68.1618 33.4902C70.4616 34.2577 72.9529 35.2171 74.1028 35.2171C75.2527 35.2171 83.7809 33.5861 83.7809 33.5861C86.943 28.4373 96.1419 29.2687 96.1419 29.2687C92.884 26.0067 85.9848 27.9255 85.9848 27.9255Z" fill="url(#paint1_linear_15_661)"/>
</g>
</g>
<defs>
<linearGradient id="paint0_linear_15_661" x1="26" y1="64.635" x2="102.658" y2="64.635" gradientUnits="userSpaceOnUse">
<stop stop-color="#FF5500"/>
<stop offset="0.409877" stop-color="#FF5500"/>
<stop offset="0.581981" stop-color="#FF2000"/>
<stop offset="1" stop-color="#FF2000"/>
</linearGradient>
<linearGradient id="paint1_linear_15_661" x1="33.8829" y1="27.223" x2="96.1419" y2="27.223" gradientUnits="userSpaceOnUse">
<stop stop-color="#FF452A"/>
<stop offset="1" stop-color="#FF2000"/>
</linearGradient>
<clipPath id="clip0_15_661">
<rect width="128" height="128" rx="24" fill="white"/>
</clipPath>
</defs>
</svg>
