<svg width="128" height="480" viewBox="0 0 128 480" fill="none" xmlns="http://www.w3.org/2000/svg">
<g clip-path="url(#clip0_15_638)">
<rect width="128" height="128" rx="24" fill="#0052FF"/>
<path fill-rule="evenodd" clip-rule="evenodd" d="M19 64C19 88.8529 39.1471 109 64 109C88.8529 109 109 88.8529 109 64C109 39.1471 88.8529 19 64 19C39.1471 19 19 39.1471 19 64ZM52.5 49.5C50.8431 49.5 49.5 50.8431 49.5 52.5V75.5C49.5 77.1569 50.8431 78.5 52.5 78.5H75.5C77.1569 78.5 78.5 77.1569 78.5 75.5V52.5C78.5 50.8431 77.1569 49.5 75.5 49.5H52.5Z" fill="white"/>
</g>
<g clip-path="url(#clip1_15_638)">
<path d="M64 304C99.3462 304 128 275.346 128 240C128 204.654 99.3462 176 64 176C28.6538 176 0 204.654 0 240C0 275.346 28.6538 304 64 304Z" fill="#0052FF"/>
<path fill-rule="evenodd" clip-rule="evenodd" d="M19 240C19 264.853 39.1471 285 64 285C88.8529 285 109 264.853 109 240C109 215.147 88.8529 195 64 195C39.1471 195 19 215.147 19 240ZM52.5 225.5C50.8431 225.5 49.5 226.843 49.5 228.5V251.5C49.5 253.157 50.8431 254.5 52.5 254.5H75.5C77.1569 254.5 78.5 253.157 78.5 251.5V228.5C78.5 226.843 77.1569 225.5 75.5 225.5H52.5Z" fill="white"/>
</g>
<path fill-rule="evenodd" clip-rule="evenodd" d="M19 416C19 440.853 39.1471 461 64 461C88.8529 461 109 440.853 109 416C109 391.147 88.8529 371 64 371C39.1471 371 19 391.147 19 416ZM52.5 401.5C50.8431 401.5 49.5 402.843 49.5 404.5V427.5C49.5 429.157 50.8431 430.5 52.5 430.5H75.5C77.1569 430.5 78.5 429.157 78.5 427.5V404.5C78.5 402.843 77.1569 401.5 75.5 401.5H52.5Z" fill="white"/>
<defs>
<clipPath id="clip0_15_638">
<rect width="128" height="128" fill="white"/>
</clipPath>
<clipPath id="clip1_15_638">
<rect width="128" height="128" fill="white" transform="translate(0 176)"/>
</clipPath>
</defs>
</svg>
