<svg width="128" height="128" viewBox="0 0 128 128" fill="none" xmlns="http://www.w3.org/2000/svg">
<g clip-path="url(#clip0_15_407)">
<path d="M121.625 5L71.68 42.0949L80.9161 20.2094L121.625 5Z" fill="#E2761B" stroke="#E2761B" stroke-linecap="round" stroke-linejoin="round"/>
<path d="M6.32472 5L55.8683 42.4463L47.0839 20.2094L6.32472 5Z" fill="#E4761B" stroke="#E4761B" stroke-linecap="round" stroke-linejoin="round"/>
<path d="M103.655 90.9859L90.353 111.365L118.814 119.196L126.996 91.4376L103.655 90.9859Z" fill="#E4761B" stroke="#E4761B" stroke-linecap="round" stroke-linejoin="round"/>
<path d="M1.05413 91.4376L9.18589 119.196L37.6471 111.365L24.3451 90.9859L1.05413 91.4376Z" fill="#E4761B" stroke="#E4761B" stroke-linecap="round" stroke-linejoin="round"/>
<path d="M36.0408 56.5514L28.1098 68.5482L56.3702 69.8031L55.3663 39.4345L36.0408 56.5514Z" fill="#E4761B" stroke="#E4761B" stroke-linecap="round" stroke-linejoin="round"/>
<path d="M91.909 56.5514L72.3326 39.0831L71.68 69.8032L99.8902 68.5482L91.909 56.5514Z" fill="#E4761B" stroke="#E4761B" stroke-linecap="round" stroke-linejoin="round"/>
<path d="M37.6471 111.365L54.6133 103.083L39.9561 91.6384L37.6471 111.365Z" fill="#E4761B" stroke="#E4761B" stroke-linecap="round" stroke-linejoin="round"/>
<path d="M73.3365 103.083L90.353 111.365L87.9937 91.6384L73.3365 103.083Z" fill="#E4761B" stroke="#E4761B" stroke-linecap="round" stroke-linejoin="round"/>
<path d="M90.3529 111.365L73.3365 103.083L74.6918 114.176L74.5412 118.845L90.3529 111.365Z" fill="#D7C1B3" stroke="#D7C1B3" stroke-linecap="round" stroke-linejoin="round"/>
<path d="M37.6471 111.365L53.4588 118.845L53.3584 114.176L54.6133 103.083L37.6471 111.365Z" fill="#D7C1B3" stroke="#D7C1B3" stroke-linecap="round" stroke-linejoin="round"/>
<path d="M53.7098 84.3098L39.5545 80.1435L49.5435 75.5757L53.7098 84.3098Z" fill="#233447" stroke="#233447" stroke-linecap="round" stroke-linejoin="round"/>
<path d="M74.24 84.3098L78.4063 75.5757L88.4455 80.1435L74.24 84.3098Z" fill="#233447" stroke="#233447" stroke-linecap="round" stroke-linejoin="round"/>
<path d="M37.6471 111.365L40.0565 90.9859L24.3451 91.4376L37.6471 111.365Z" fill="#CD6116" stroke="#CD6116" stroke-linecap="round" stroke-linejoin="round"/>
<path d="M87.9435 90.9859L90.353 111.365L103.655 91.4376L87.9435 90.9859Z" fill="#CD6116" stroke="#CD6116" stroke-linecap="round" stroke-linejoin="round"/>
<path d="M99.8902 68.5482L71.68 69.8031L74.2902 84.3098L78.4565 75.5757L88.4957 80.1435L99.8902 68.5482Z" fill="#CD6116" stroke="#CD6116" stroke-linecap="round" stroke-linejoin="round"/>
<path d="M39.5545 80.1435L49.5937 75.5757L53.7098 84.3098L56.3702 69.8031L28.1098 68.5482L39.5545 80.1435Z" fill="#CD6116" stroke="#CD6116" stroke-linecap="round" stroke-linejoin="round"/>
<path d="M28.1098 68.5482L39.9561 91.6384L39.5545 80.1435L28.1098 68.5482Z" fill="#E4751F" stroke="#E4751F" stroke-linecap="round" stroke-linejoin="round"/>
<path d="M88.4957 80.1435L87.9937 91.6384L99.8902 68.5482L88.4957 80.1435Z" fill="#E4751F" stroke="#E4751F" stroke-linecap="round" stroke-linejoin="round"/>
<path d="M56.3702 69.8031L53.7098 84.3098L57.0227 101.427L57.7757 78.8886L56.3702 69.8031Z" fill="#E4751F" stroke="#E4751F" stroke-linecap="round" stroke-linejoin="round"/>
<path d="M71.68 69.8031L70.3247 78.8384L70.9271 101.427L74.2902 84.3098L71.68 69.8031Z" fill="#E4751F" stroke="#E4751F" stroke-linecap="round" stroke-linejoin="round"/>
<path d="M74.2902 84.3098L70.9271 101.427L73.3365 103.083L87.9937 91.6384L88.4957 80.1435L74.2902 84.3098Z" fill="#F6851B" stroke="#F6851B" stroke-linecap="round" stroke-linejoin="round"/>
<path d="M39.5545 80.1435L39.9561 91.6384L54.6133 103.083L57.0227 101.427L53.7098 84.3098L39.5545 80.1435Z" fill="#F6851B" stroke="#F6851B" stroke-linecap="round" stroke-linejoin="round"/>
<path d="M74.5412 118.845L74.6918 114.176L73.4369 113.072H54.5129L53.3584 114.176L53.4588 118.845L37.6471 111.365L43.1686 115.883L54.3624 123.664H73.5875L84.8314 115.883L90.353 111.365L74.5412 118.845Z" fill="#C0AD9E" stroke="#C0AD9E" stroke-linecap="round" stroke-linejoin="round"/>
<path d="M73.3365 103.083L70.9271 101.427H57.0227L54.6133 103.083L53.3584 114.176L54.5129 113.072H73.4369L74.6918 114.176L73.3365 103.083Z" fill="#161616" stroke="#161616" stroke-linecap="round" stroke-linejoin="round"/>
<path d="M123.733 44.5043L128 24.0243L121.625 5L73.3365 40.84L91.909 56.5514L118.162 64.2314L123.984 57.4549L121.474 55.6478L125.49 51.9835L122.378 49.5741L126.394 46.5122L123.733 44.5043Z" fill="#763D16" stroke="#763D16" stroke-linecap="round" stroke-linejoin="round"/>
<path d="M0 24.0243L4.26667 44.5043L1.55608 46.5122L5.57177 49.5741L2.5098 51.9835L6.52549 55.6478L4.01569 57.4549L9.78824 64.2314L36.0408 56.5514L54.6133 40.84L6.32471 5L0 24.0243Z" fill="#763D16" stroke="#763D16" stroke-linecap="round" stroke-linejoin="round"/>
<path d="M118.162 64.2314L91.909 56.5514L99.8902 68.5482L87.9937 91.6384L103.655 91.4377H126.996L118.162 64.2314Z" fill="#F6851B" stroke="#F6851B" stroke-linecap="round" stroke-linejoin="round"/>
<path d="M36.0408 56.5514L9.78824 64.2314L1.05412 91.4377H24.3451L39.9561 91.6384L28.1098 68.5482L36.0408 56.5514Z" fill="#F6851B" stroke="#F6851B" stroke-linecap="round" stroke-linejoin="round"/>
<path d="M71.68 69.8031L73.3365 40.84L80.9663 20.2094H47.0839L54.6133 40.84L56.3702 69.8031L56.9726 78.9388L57.0227 101.427H70.9271L71.0275 78.9388L71.68 69.8031Z" fill="#F6851B" stroke="#F6851B" stroke-linecap="round" stroke-linejoin="round"/>
</g>
<defs>
<clipPath id="clip0_15_407">
<rect width="128" height="128" fill="white"/>
</clipPath>
</defs>
</svg>
