<svg width="128" height="128" viewBox="0 0 128 128" fill="none" xmlns="http://www.w3.org/2000/svg">
<g clip-path="url(#clip0_15_1182)">
<rect width="128" height="128" rx="24" fill="white"/>
<path d="M63.9979 19.0021C39.1463 19.0021 19 39.1484 19 63.9999C19 88.1324 37.9986 107.828 61.8548 108.945C62.5668 108.979 63.2798 108.998 63.9985 108.998C75.5193 108.998 86.026 104.666 93.9871 97.5467C88.7124 101.045 82.5457 103.057 75.9552 103.057C65.2393 103.057 55.6422 97.7414 49.1876 89.3583C44.2119 83.4849 40.9892 74.8028 40.7697 65.0592V62.9401C40.9891 53.1968 44.2117 44.5129 49.1863 38.641C55.6419 30.2578 65.2386 24.9417 75.9539 24.9417C82.546 24.9417 88.7139 26.9545 93.989 30.4548C86.0669 23.3679 75.6237 19.0448 64.1671 19.0023C64.11 19.0023 64.054 19.0001 63.997 19.0001L63.9979 19.0021Z" fill="url(#paint0_linear_15_1182)"/>
<path d="M49.187 38.6436C53.3164 33.7687 58.6493 30.8291 64.4757 30.8291C77.576 30.8291 88.1938 45.6813 88.1938 64.002C88.1938 82.3228 77.5752 97.175 64.4757 97.175C58.6493 97.175 53.3164 94.2366 49.1881 89.3616C55.6425 97.7447 65.2388 103.061 75.9557 103.061C82.5466 103.061 88.7134 101.048 93.9875 97.55C103.198 89.3101 108.998 77.3338 108.998 64.0024C108.998 50.6725 103.199 38.6968 93.9909 30.4579C88.7151 26.9576 82.5472 24.9449 75.9558 24.9449C65.2399 24.9449 55.6428 30.2609 49.1882 38.6441" fill="url(#paint1_linear_15_1182)"/>
</g>
<defs>
<linearGradient id="paint0_linear_15_1182" x1="56.4956" y1="20.4689" x2="56.4956" y2="107.69" gradientUnits="userSpaceOnUse">
<stop stop-color="#FF1B2D"/>
<stop offset="0.3" stop-color="#FF1B2D"/>
<stop offset="0.614" stop-color="#FF1B2D"/>
<stop offset="1" stop-color="#A70014"/>
</linearGradient>
<linearGradient id="paint1_linear_15_1182" x1="79.0914" y1="25.6106" x2="79.0914" y2="102.753" gradientUnits="userSpaceOnUse">
<stop stop-color="#9C0000"/>
<stop offset="0.7" stop-color="#FF4B4B"/>
<stop offset="1" stop-color="#FF4B4B"/>
</linearGradient>
<clipPath id="clip0_15_1182">
<rect width="128" height="128" fill="white"/>
</clipPath>
</defs>
</svg>
