<svg width="128" height="128" viewBox="0 0 128 128" fill="none" xmlns="http://www.w3.org/2000/svg">
<g clip-path="url(#clip0_15_1184)">
<path d="M63.997 0.00912476C28.6526 0.00912476 0 28.6617 0 64.0061C0 98.3278 27.0202 126.339 60.9491 127.929C61.9616 127.976 62.9757 128.003 63.9979 128.003C80.383 128.003 95.3258 121.842 106.648 111.717C99.1466 116.692 90.376 119.555 81.0029 119.555C65.7625 119.555 52.1133 111.994 42.9335 100.071C35.8569 91.718 31.2735 79.3701 30.9613 65.5125V62.4987C31.2733 48.6416 35.8567 36.2913 42.9317 27.94C52.1129 16.0173 65.7616 8.45667 81.0011 8.45667C90.3765 8.45667 99.1486 11.3192 106.651 16.2975C95.3841 6.21838 80.5315 0.0699539 64.2377 0.00945282C64.1565 0.00945282 64.0769 0.00627899 63.9957 0.00627899L63.997 0.00912476Z" fill="url(#paint0_linear_15_1184)"/>
<path d="M42.9326 27.9438C48.8055 21.0106 56.3901 16.8298 64.6766 16.8298C83.3081 16.8298 98.409 37.9529 98.409 64.0091C98.409 90.0653 83.3069 111.188 64.6766 111.188C56.3901 111.188 48.8055 107.009 42.9342 100.076C52.1138 111.999 65.7618 119.559 81.0036 119.559C90.3774 119.559 99.1479 116.697 106.649 111.722C119.748 100.003 127.996 82.9698 127.996 64.0096C127.996 45.0516 119.75 28.0194 106.654 16.3019C99.1504 11.3237 90.3783 8.46113 81.0038 8.46113C65.7634 8.46113 52.1142 16.0218 42.9344 27.9445" fill="url(#paint1_linear_15_1184)"/>
</g>
<defs>
<linearGradient id="paint0_linear_15_1184" x1="53.3271" y1="2.09526" x2="53.3271" y2="126.143" gradientUnits="userSpaceOnUse">
<stop stop-color="#FF1B2D"/>
<stop offset="0.3" stop-color="#FF1B2D"/>
<stop offset="0.614" stop-color="#FF1B2D"/>
<stop offset="1" stop-color="#A70014"/>
</linearGradient>
<linearGradient id="paint1_linear_15_1184" x1="85.4633" y1="9.40801" x2="85.4633" y2="119.121" gradientUnits="userSpaceOnUse">
<stop stop-color="#9C0000"/>
<stop offset="0.7" stop-color="#FF4B4B"/>
<stop offset="1" stop-color="#FF4B4B"/>
</linearGradient>
<clipPath id="clip0_15_1184">
<rect width="128" height="128" fill="white"/>
</clipPath>
</defs>
</svg>
