<svg width="128" height="128" viewBox="0 0 128 128" fill="none" xmlns="http://www.w3.org/2000/svg">
<g clip-path="url(#clip0_15_1183)">
<path d="M64 128C99.3462 128 128 99.3462 128 64C128 28.6538 99.3462 0 64 0C28.6538 0 0 28.6538 0 64C0 99.3462 28.6538 128 64 128Z" fill="white"/>
<path d="M63.9979 19.004C39.1463 19.004 19 39.1504 19 64.0019C19 88.1343 37.9986 107.83 61.8548 108.947C62.5668 108.981 63.2798 109 63.9985 109C75.5193 109 86.026 104.668 93.9871 97.5486C88.7124 101.047 82.5457 103.059 75.9552 103.059C65.2393 103.059 55.6422 97.7434 49.1876 89.3602C44.2119 83.4868 40.9892 74.8047 40.7697 65.0611V62.942C40.9891 53.1987 44.2117 44.5149 49.1863 38.6429C55.6419 30.2597 65.2386 24.9437 75.9539 24.9437C82.546 24.9437 88.7139 26.9564 93.989 30.4567C86.0669 23.3699 75.6237 19.0468 64.1671 19.0042C64.11 19.0042 64.054 19.002 63.997 19.002L63.9979 19.004Z" fill="url(#paint0_linear_15_1183)"/>
<path d="M49.187 38.6456C53.3164 33.7707 58.6493 30.831 64.4757 30.831C77.576 30.831 88.1938 45.6832 88.1938 64.004C88.1938 82.3248 77.5752 97.177 64.4757 97.177C58.6493 97.177 53.3164 94.2386 49.1881 89.3635C55.6425 97.7467 65.2388 103.063 75.9557 103.063C82.5466 103.063 88.7134 101.05 93.9875 97.5519C103.198 89.3121 108.998 77.3357 108.998 64.0043C108.998 50.6745 103.199 38.6988 93.9909 30.4599C88.7151 26.9596 82.5472 24.9468 75.9558 24.9468C65.2399 24.9468 55.6428 30.2629 49.1882 38.6461" fill="url(#paint1_linear_15_1183)"/>
</g>
<defs>
<linearGradient id="paint0_linear_15_1183" x1="56.4956" y1="20.4708" x2="56.4956" y2="107.692" gradientUnits="userSpaceOnUse">
<stop stop-color="#FF1B2D"/>
<stop offset="0.3" stop-color="#FF1B2D"/>
<stop offset="0.614" stop-color="#FF1B2D"/>
<stop offset="1" stop-color="#A70014"/>
</linearGradient>
<linearGradient id="paint1_linear_15_1183" x1="79.0914" y1="25.6126" x2="79.0914" y2="102.755" gradientUnits="userSpaceOnUse">
<stop stop-color="#9C0000"/>
<stop offset="0.7" stop-color="#FF4B4B"/>
<stop offset="1" stop-color="#FF4B4B"/>
</linearGradient>
<clipPath id="clip0_15_1183">
<rect width="128" height="128" fill="white"/>
</clipPath>
</defs>
</svg>
