<svg width="128" height="128" viewBox="0 0 128 128" fill="none" xmlns="http://www.w3.org/2000/svg">
<path d="M40.675 49.425C53.55 36.85 74.45 36.85 87.325 49.425L88.875 50.95C89.525 51.575 89.525 52.6 88.875 53.225L83.575 58.4C83.25 58.725 82.725 58.725 82.4 58.4L80.275 56.325C71.275 47.55 56.725 47.55 47.725 56.325L45.45 58.55C45.125 58.875 44.6 58.875 44.275 58.55L38.975 53.375C38.325 52.75 38.325 51.725 38.975 51.1L40.675 49.425ZM98.3 60.125L103.025 64.725C103.675 65.35 103.675 66.375 103.025 67L81.75 87.775C81.1 88.4 80.05 88.4 79.425 87.775L64.325 73.025C64.175 72.875 63.9 72.875 63.75 73.025L48.65 87.775C48 88.4 46.95 88.4 46.325 87.775L24.975 67C24.325 66.375 24.325 65.35 24.975 64.725L29.7 60.125C30.35 59.5 31.4 59.5 32.025 60.125L47.125 74.875C47.275 75.025 47.55 75.025 47.7 74.875L62.8 60.125C63.45 59.5 64.5 59.5 65.125 60.125L80.225 74.875C80.375 75.025 80.65 75.025 80.8 74.875L95.9 60.125C96.6 59.5 97.65 59.5 98.3 60.125Z" fill="white"/>
</svg>
